# xmcd CD database file
#
# Track frame offsets:
#	150
#	11570
#	24755
#	34852
#	48035
#	65285
#	76237
#	87847
#	96345
#	106257
#	118912
#
# Disc length: 1756 seconds
#
# Revision: 0
# Processed by: cddbd v1.5.2PL0 Copyright (c) Steve Scherf et al.
# Submitted via: CDex 1.70beta2
#
DISCID=7906da0b
DTITLE=CML - USA - Country Music Legends
DYEAR=1900
DGENRE=Country
TTITLE0=Blue Eyes Cryin' In the Rain - Roy Drusky
TTITLE1=Ruby, Don't Take Your Love To Town - Kenny Rogers
TTITLE2=I Didn't Sleep A Wink - Willie Nelson
TTITLE3=Daddy - Donna Fargo
TTITLE4=Your Song - Johnny Lee
TTITLE5=Stop, Look and Listen - Patsy Cline
TTITLE6=Heartaches By the Number - Guy Mitchell
TTITLE7=Abilene - Waylon Jennings
TTITLE8=Shake'Em Up and Let'Em Roll - Stonewall Jackson
TTITLE9=Makin' Believe - Kitty Wells
TTITLE10=Moonlight Gambler - Frankie Lane
EXTD=
EXTT0=
EXTT1=
EXTT2=
EXTT3=
EXTT4=
EXTT5=
EXTT6=
EXTT7=
EXTT8=
EXTT9=
EXTT10=
PLAYORDER=
